<?xml version="1.0" encoding="UTF-8" standalone="no"?>
<svg
   viewBox="0 0 384 512"
   version="1.1"
   id="svg1"
   sodipodi:docname="exportCsv.svg"
   inkscape:version="1.3.2 (1:1.3.2+202311252150+091e20ef0f)"
   xmlns:inkscape="http://www.inkscape.org/namespaces/inkscape"
   xmlns:sodipodi="http://sodipodi.sourceforge.net/DTD/sodipodi-0.dtd"
   xmlns="http://www.w3.org/2000/svg"
   xmlns:svg="http://www.w3.org/2000/svg">
  <defs
     id="defs1" />
  <sodipodi:namedview
     id="namedview1"
     pagecolor="#ffffff"
     bordercolor="#666666"
     borderopacity="1.0"
     inkscape:showpageshadow="2"
     inkscape:pageopacity="0.0"
     inkscape:pagecheckerboard="0"
     inkscape:deskcolor="#d1d1d1"
     inkscape:zoom="1.3652344"
     inkscape:cx="192.27467"
     inkscape:cy="256.73247"
     inkscape:window-width="1920"
     inkscape:window-height="941"
     inkscape:window-x="0"
     inkscape:window-y="0"
     inkscape:window-maximized="1"
     inkscape:current-layer="svg1" />
  <!--!Font Awesome Free 6.5.1 by @fontawesome - https://fontawesome.com License - https://fontawesome.com/license/free Copyright 2024 Fonticons, Inc.-->
  <!--!Font Awesome Free 6.5.1 by @fontawesome - https://fontawesome.com License - https://fontawesome.com/license/free Copyright 2024 Fonticons, Inc.-->
  <path
     d="m 78.758222,129.1191 c 0,-18.91272 12.907172,-34.289344 28.782548,-34.289344 h 71.95637 v 68.578694 c 0,9.48314 6.4311,17.14467 14.39127,17.14467 h 57.5651 v 77.15102 h -93.54328 c -15.87538,0 -28.78255,15.37662 -28.78255,34.28933 v 77.15103 h -21.58691 c -15.875376,0 -28.782548,-15.37663 -28.782548,-34.28935 z m 172.695288,34.28935 h -57.5651 V 94.829756 Z m -82.74983,120.01269 h 7.19565 c 9.93897,0 17.98908,9.5903 17.98908,21.43084 v 4.28617 c 0,4.71479 -3.23803,8.57233 -7.19564,8.57233 -3.95759,0 -7.19563,-3.85754 -7.19563,-8.57233 v -4.28617 c 0,-2.3574 -1.61901,-4.28617 -3.59781,-4.28617 h -7.19565 c -1.97879,0 -3.59781,1.92877 -3.59781,4.28617 v 42.86168 c 0,2.35739 1.61902,4.28617 3.59781,4.28617 h 7.19565 c 1.9788,0 3.59781,-1.92878 3.59781,-4.28617 v -4.28617 c 0,-4.71479 3.23804,-8.57234 7.19563,-8.57234 3.95761,0 7.19564,3.85755 7.19564,8.57234 v 4.28617 c 0,11.84053 -8.05011,21.43084 -17.98908,21.43084 h -7.19565 c -9.93898,0 -17.98908,-9.59031 -17.98908,-21.43084 v -42.86168 c 0,-11.84054 8.0501,-21.43084 17.98908,-21.43084 z m 59.85872,0 h 15.69548 c 3.95759,0 7.19563,3.85755 7.19563,8.57233 0,4.71479 -3.23804,8.57234 -7.19563,8.57234 H 228.5624 c -3.23804,0 -5.89144,3.16105 -5.89144,7.01861 0,2.786 1.34918,5.30412 3.50788,6.42924 l 16.8198,8.8938 c 7.33056,3.85755 12.05268,12.53704 12.05268,22.07376 0,13.34071 -9.08448,24.16328 -20.28269,24.16328 h -19.2933 c -3.9576,0 -7.19564,-3.85756 -7.19564,-8.57234 0,-4.71479 3.23804,-8.57233 7.19564,-8.57233 h 19.2933 c 3.23803,0 5.89142,-3.16105 5.89142,-7.01861 0,-2.78601 -1.34917,-5.30413 -3.50786,-6.42925 l -16.81981,-8.8938 c -7.33055,-3.85754 -12.05269,-12.53704 -12.05269,-22.07375 0,-13.34071 9.08449,-24.16328 20.28271,-24.16328 z m 44.47802,0 c 3.9576,0 7.19564,3.85755 7.19564,8.57233 v 16.93037 c 0,12.32273 2.4735,24.43115 7.19563,35.36088 4.72215,-10.87615 7.19565,-22.98458 7.19565,-35.36088 v -16.93037 c 0,-4.71478 3.23803,-8.57233 7.19563,-8.57233 3.9576,0 7.19564,3.85755 7.19564,8.57233 v 16.93037 c 0,18.59125 -4.63219,36.80747 -13.31193,52.29124 l -2.29362,4.12544 c -1.34917,2.41098 -3.59781,3.80398 -5.98137,3.80398 -2.38355,0 -4.63219,-1.44658 -5.98137,-3.80398 l -2.29361,-4.12544 c -8.67973,-15.48377 -13.31192,-33.69999 -13.31192,-52.29124 v -16.93037 c 0,-4.71478 3.23803,-8.57233 7.19563,-8.57233 z"
     id="path1"
     style="stroke-width:0.490867" />
  <text
     xml:space="preserve"
     style="font-style:normal;font-weight:normal;font-size:60.1471px;line-height:1.25;font-family:sans-serif;fill:#000000;fill-opacity:1;stroke:none;stroke-width:1.50368"
     x="110.99443"
     y="409.59259"
     id="text1"
     transform="scale(0.96138527,1.0401657)"><tspan
       sodipodi:role="line"
       id="tspan1"
       x="110.99443"
       y="409.59259"
       style="stroke-width:1.50368">Export</tspan></text>
</svg>
