<svg xmlns="http://www.w3.org/2000/svg" shape-rendering="geometricPrecision" text-rendering="geometricPrecision" image-rendering="optimizeQuality" fill-rule="evenodd" clip-rule="evenodd" viewBox="0 0 512 378.01"><path fill-rule="nonzero" d="M287.35 173.92H151.37v59.11c0 4.51-3.66 8.17-8.17 8.17-2.25 0-4.29-.91-5.77-2.39L2.93 126.84c-3.45-2.87-3.92-8.01-1.05-11.46.34-.41.72-.78 1.12-1.11L137.99 1.88c3.46-2.87 8.6-2.4 11.47 1.05a8.144 8.144 0 0 1 1.88 5.21h.03v59.11h135.98c4.51 0 8.17 3.66 8.17 8.17v90.33c0 4.51-3.66 8.17-8.17 8.17zm-62.7 30.17h135.98v-59.11a8.173 8.173 0 0 1 13.94-5.79l134.5 111.97a8.158 8.158 0 0 1-.07 12.58L374.01 376.13a8.15 8.15 0 0 1-11.47-1.06 8.098 8.098 0 0 1-1.88-5.2h-.03v-59.11H224.65c-4.51 0-8.17-3.66-8.17-8.17v-90.33c0-4.51 3.66-8.17 8.17-8.17zm144.15 16.34H232.82v73.98H368.8c4.51 0 8.17 3.66 8.17 8.18v49.88l114.17-95.05-114.17-95.04v49.88c0 4.51-3.66 8.17-8.17 8.17zm-225.6-62.85h135.98V83.6H143.2c-4.51 0-8.17-3.67-8.17-8.18V25.54L20.86 120.59l114.17 95.04v-49.88c0-4.51 3.66-8.17 8.17-8.17z"/></svg>