<?xml version="1.0" encoding="iso-8859-1"?>
<!-- Generator: Adobe Illustrator 16.0.0, SVG Export Plug-In . SVG Version: 6.00 Build 0)  -->
<!DOCTYPE svg PUBLIC "-//W3C//DTD SVG 1.1//EN" "http://www.w3.org/Graphics/SVG/1.1/DTD/svg11.dtd">
<svg version="1.1" id="Capa_1" xmlns="http://www.w3.org/2000/svg" xmlns:xlink="http://www.w3.org/1999/xlink" x="0px" y="0px"
	 width="893.823px" height="893.823px" viewBox="0 0 893.823 893.823" style="enable-background:new 0 0 893.823 893.823;"
	 xml:space="preserve">
<g>
	<path d="M881.317,544.502c-126.3-148.522-281.114-150.351-298.021-150.079H178.608l42.272-41.769
		c20.625-20.379,20.824-53.62,0.445-74.245c-20.379-20.625-53.62-20.824-74.245-0.445L15.6,407.878
		c-20.625,20.379-20.824,53.619-0.445,74.244l131.682,133.271c10.27,10.394,23.804,15.6,37.347,15.6
		c13.329,0,26.667-5.046,36.898-15.154c20.625-20.38,20.825-53.62,0.446-74.245l-41.669-42.171h403.93l1.788-0.03
		c0.263-0.007,28.105-0.334,67.585,12.207c56.68,18.005,106.531,51.96,148.167,100.923c10.385,12.211,25.155,18.491,40.02,18.491
		c12.023,0,24.108-4.108,33.985-12.506C897.421,599.723,900.101,566.59,881.317,544.502z"/>
</g>
<g>
</g>
<g>
</g>
<g>
</g>
<g>
</g>
<g>
</g>
<g>
</g>
<g>
</g>
<g>
</g>
<g>
</g>
<g>
</g>
<g>
</g>
<g>
</g>
<g>
</g>
<g>
</g>
<g>
</g>
</svg>
