<?xml version="1.0" standalone="no"?>
<!DOCTYPE svg PUBLIC "-//W3C//DTD SVG 20010904//EN"
 "http://www.w3.org/TR/2001/REC-SVG-20010904/DTD/svg10.dtd">
<svg version="1.0" xmlns="http://www.w3.org/2000/svg"
 width="1280.000000pt" height="1280.000000pt" viewBox="0 0 1280.000000 1280.000000"
 preserveAspectRatio="xMidYMid meet">
<metadata>
Created by potrace 1.15, written by Peter Selinger 2001-2017
</metadata>
<g transform="translate(0.000000,1280.000000) scale(0.100000,-0.100000)"
fill="#000000" stroke="none">
<path d="M5655 11235 c-38 -8 -108 -33 -155 -56 -69 -34 -102 -59 -175 -133
-96 -97 -136 -160 -177 -281 l-23 -70 -3 -1552 -2 -1553 -1558 -2 -1557 -3
-78 -28 c-100 -35 -175 -83 -255 -160 -123 -121 -183 -246 -203 -423 -7 -65
-9 -351 -7 -824 4 -810 1 -770 78 -925 75 -153 219 -278 389 -339 l86 -31
1553 -3 1552 -2 0 -1513 c1 -1615 0 -1592 50 -1717 55 -139 182 -278 318 -348
155 -81 108 -77 1002 -77 885 0 848 -3 995 70 172 84 317 263 360 446 13 56
15 265 15 1602 l0 1537 1520 0 c1697 0 1603 -4 1755 70 141 68 244 172 316
315 69 141 69 129 69 988 0 841 0 841 -60 972 -75 164 -236 309 -410 368 l-65
22 -1560 5 -1560 5 -5 1560 -5 1560 -22 65 c-69 200 -238 370 -436 437 l-82
28 -795 2 c-646 1 -808 -1 -865 -12z"/>
</g>
</svg>
