<?xml version="1.0" encoding="iso-8859-1"?>
<!-- Generator: Adobe Illustrator 19.0.0, SVG Export Plug-In . SVG Version: 6.00 Build 0)  -->
<svg version="1.1" id="Layer_1" xmlns="http://www.w3.org/2000/svg" xmlns:xlink="http://www.w3.org/1999/xlink" x="0px" y="0px"
	 viewBox="0 0 509.287 509.287" style="enable-background:new 0 0 509.287 509.287;" xml:space="preserve">
<circle style="fill:#6EB1E1;" cx="254.644" cy="254.644" r="254.644"/>
<g>
	
		<ellipse transform="matrix(-0.2165 -0.9763 0.9763 -0.2165 30.3557 414.2847)" style="fill:#F0BA7A;" cx="181.417" cy="194.962" rx="31.873" ry="13.902"/>
	
		<ellipse transform="matrix(-0.2165 0.9763 -0.9763 -0.2165 589.1484 -83.1504)" style="fill:#F0BA7A;" cx="327.94" cy="194.832" rx="31.873" ry="13.902"/>
	<polygon style="fill:#F0BA7A;" points="314.999,335.004 194.289,335.004 202.766,235.995 306.522,235.995 	"/>
</g>
<rect x="220.397" y="318.728" style="fill:#E3E3E5;" width="68.832" height="113.928"/>
<polygon style="fill:#374689;" points="261.764,318.728 247.523,318.728 234.299,338.734 246.167,350.601 263.121,350.601 
	274.988,338.734 "/>
<polygon style="fill:#4B5AA7;" points="246.167,350.601 234.299,401.123 254.644,421.468 274.988,401.123 263.121,350.601 "/>
<rect x="132.238" y="86.464" style="fill:#F8B517;" width="5.764" height="60.694"/>
<g>
	<circle style="fill:#FBD303;" cx="135.29" cy="129.526" r="8.816"/>
	<path style="fill:#FBD303;" d="M135.29,145.462L135.29,145.462c-5.764,0-10.511,4.747-10.511,10.511v88.498h21.023v-88.498
		C145.801,150.209,141.054,145.462,135.29,145.462z"/>
</g>
<polygon style="fill:#333842;" points="255.661,34.585 109.521,82.734 255.661,130.543 401.801,82.734 "/>
<ellipse style="fill:#F7CFA2;" cx="254.644" cy="190.898" rx="72.223" ry="96.636"/>
<g>
	<path style="fill:#333842;" d="M312.964,126.813l3.73,73.24h9.155c0,0,2.713-22.718,15.258-27.804c0,0-2.034-31.195-10.172-40.689
		C323.475,121.727,312.964,126.813,312.964,126.813z"/>
	<path style="fill:#333842;" d="M196.323,126.813l-4.069,73.24h-9.155c0,0-2.374-22.718-15.258-27.804
		c0,0,2.034-31.195,10.172-40.689C186.151,121.727,196.323,126.813,196.323,126.813z"/>
</g>
<path style="fill:#3D4550;" d="M255.661,68.493c-58.999,0-80.36,20.005-80.36,20.005v56.286c36.959-12.546,80.36,4.069,80.36,4.069
	s43.401-16.615,80.36-4.069V88.498C336.021,88.498,314.66,68.493,255.661,68.493z"/>
<polygon style="fill:#F3F4F9;" points="197.001,279.396 254.644,318.728 232.265,364.503 184.456,293.976 "/>
<path style="fill:#2A3235;" d="M119.354,332.63c-40.35-11.189-63.746,20.683-76.97,62.728
	c45.436,68.832,123.762,113.928,212.26,113.928c2.374,0,4.408,0,6.781,0c0-18.31,0-42.384,0-69.849
	c0-60.016-76.63-145.462-76.63-145.462L119.354,332.63z"/>
<polygon style="fill:#F3F4F9;" points="312.286,279.396 254.644,318.728 277.022,364.503 324.832,293.976 "/>
<path style="fill:#2A3235;" d="M389.934,332.63l-65.102-38.654c0,0-76.63,85.446-76.63,145.462c0,27.465,0,51.539,0,69.849
	c2.374,0,4.408,0,6.781,0c88.498,0,166.485-45.436,212.26-113.928C453.34,352.975,430.283,321.102,389.934,332.63z"/>
<g>
</g>
<g>
</g>
<g>
</g>
<g>
</g>
<g>
</g>
<g>
</g>
<g>
</g>
<g>
</g>
<g>
</g>
<g>
</g>
<g>
</g>
<g>
</g>
<g>
</g>
<g>
</g>
<g>
</g>
</svg>
