<svg id="Capa_1" enable-background="new 0 0 512 512" height="512" viewBox="0 0 512 512" width="512" xmlns="http://www.w3.org/2000/svg"><g><g><g><g><path d="m388.252 333.8-36.6 119.1-96.6 59.1-96.9-59.1-36.9-119.1c7.202-1.201 14.702-1.8 22.202-1.8h46.5c11.1 0 20.099-9.3 20.099-20.4v-21.901l20.4 7.8c15 6 34.2 6 49.2 0l20.4-7.8v21.901c0 11.1 9 20.4 20.099 20.4h46.5c7.201 0 14.401.599 21.6 1.8z" fill="#fff5f5"/></g></g></g><path d="m351.653 452.899 36.599-119.099c-7.2-1.201-14.399-1.8-21.601-1.8h-46.5c-11.1 0-20.099-9.3-20.099-20.4v-21.901l-20.4 7.8c-7.5 2.999-16.051 4.501-24.6 4.501v210z" fill="#efe2dd"/><g id="Student_2_"><g><path d="m330.052 182h-150c-16.569 0-30-13.431-30-30v-92.153l105 31.494 105-31.494v92.153c0 16.569-13.431 30-30 30z" fill="#41474d"/></g><g><g><path d="m390.052 62h30v120h-30z" fill="#f03800"/></g></g></g><path d="m512 512h-256.948l133.2-178.2c54.6 8.699 98.248 51 109.348 106.8z" fill="#41474d"/><path d="m255.052 512h-255.052l14.399-71.4c11.1-55.501 52.552-97.8 106.852-106.8z" fill="#5c6366"/><path d="m330.052 182c16.569 0 30-13.433 30-30v-92.153l-105 31.494v90.659z" fill="#282c33"/><g><path d="m255.052 332c-59.048 0-105-48.482-105-105v-75h210v75c0 58.889-47.958 105-105 105z" fill="#ffd9b3"/></g><path d="m360.052 227v-75h-105v180c57.043 0 105-46.111 105-105z" fill="#fb9"/><g><path d="m255.052 122.659-202.207-60.659 202.207-62 202.207 62z" fill="#5c6366"/></g><path d="m457.259 62-202.207-62v122.659z" fill="#41474d"/></g></svg>